<mxfile host="Electron" scale="2" border="0" agent="Mozilla/5.0 (Windows NT 10.0; Win64; x64) AppleWebKit/537.36 (KHTML, like Gecko) draw.io/24.7.17 Chrome/128.0.6613.36 Electron/32.0.1 Safari/537.36" version="24.7.17">
  <diagram id="rIg0Oh2x5VlyCMk2Tkae" name="第 1 页">
    <mxGraphModel dx="3053" dy="1793" grid="1" gridSize="10" guides="1" tooltips="1" connect="1" arrows="1" fold="1" page="1" pageScale="1" pageWidth="827" pageHeight="1169" math="0" shadow="0">
      <root>
        <mxCell id="0" />
        <mxCell id="1" parent="0" />
        <mxCell id="8" style="edgeStyle=none;html=1;fontSize=16;" parent="1" source="4" target="5" edge="1">
          <mxGeometry relative="1" as="geometry" />
        </mxCell>
        <mxCell id="9" style="edgeStyle=none;html=1;fontSize=16;" parent="1" source="4" target="6" edge="1">
          <mxGeometry relative="1" as="geometry" />
        </mxCell>
        <mxCell id="4" value="自助查询&amp;nbsp;" style="rounded=0;html=1;whiteSpace=wrap;horizontal=1;align=center;textDirection=vertical-lr;fontSize=16;" parent="1" vertex="1">
          <mxGeometry x="918" y="640" width="40" height="120" as="geometry" />
        </mxCell>
        <mxCell id="5" value="输入问题" style="rounded=0;html=1;whiteSpace=wrap;horizontal=1;align=center;textDirection=vertical-lr;fontSize=16;" parent="1" vertex="1">
          <mxGeometry x="878" y="800" width="40" height="120" as="geometry" />
        </mxCell>
        <mxCell id="6" value="获取答案" style="rounded=0;html=1;whiteSpace=wrap;horizontal=1;align=center;textDirection=vertical-lr;fontSize=16;" parent="1" vertex="1">
          <mxGeometry x="958" y="800" width="40" height="120" as="geometry" />
        </mxCell>
        <mxCell id="14" style="edgeStyle=none;html=1;fontSize=16;" parent="1" source="10" target="12" edge="1">
          <mxGeometry relative="1" as="geometry" />
        </mxCell>
        <mxCell id="15" style="edgeStyle=none;html=1;fontSize=16;" parent="1" source="10" target="13" edge="1">
          <mxGeometry relative="1" as="geometry" />
        </mxCell>
        <mxCell id="10" value="智能推荐" style="rounded=0;html=1;whiteSpace=wrap;horizontal=1;align=center;textDirection=vertical-lr;fontSize=16;" parent="1" vertex="1">
          <mxGeometry x="758" y="640" width="40" height="120" as="geometry" />
        </mxCell>
        <mxCell id="12" value="接受推荐" style="rounded=0;html=1;whiteSpace=wrap;horizontal=1;align=center;textDirection=vertical-lr;fontSize=16;" parent="1" vertex="1">
          <mxGeometry x="798" y="800" width="40" height="120" as="geometry" />
        </mxCell>
        <mxCell id="13" value="反馈推荐" style="rounded=0;html=1;whiteSpace=wrap;horizontal=1;align=center;textDirection=vertical-lr;fontSize=16;" parent="1" vertex="1">
          <mxGeometry x="718" y="800" width="40" height="120" as="geometry" />
        </mxCell>
        <mxCell id="22" style="edgeStyle=none;html=1;fontSize=16;" parent="1" source="16" target="18" edge="1">
          <mxGeometry relative="1" as="geometry" />
        </mxCell>
        <mxCell id="23" style="edgeStyle=none;html=1;fontSize=16;" parent="1" source="16" target="17" edge="1">
          <mxGeometry relative="1" as="geometry" />
        </mxCell>
        <mxCell id="16" value="转接人工客服&lt;br style=&quot;font-size: 16px;&quot;&gt;" style="rounded=0;html=1;whiteSpace=wrap;horizontal=1;align=center;textDirection=vertical-lr;fontSize=16;" parent="1" vertex="1">
          <mxGeometry x="440" y="640" width="40" height="120" as="geometry" />
        </mxCell>
        <mxCell id="17" value="连接人工客服" style="rounded=0;html=1;whiteSpace=wrap;horizontal=1;align=center;textDirection=vertical-lr;fontSize=16;" parent="1" vertex="1">
          <mxGeometry x="480" y="800" width="40" height="120" as="geometry" />
        </mxCell>
        <mxCell id="18" value="请求人工客服" style="rounded=0;html=1;whiteSpace=wrap;horizontal=1;align=center;textDirection=vertical-lr;fontSize=16;" parent="1" vertex="1">
          <mxGeometry x="400" y="800" width="40" height="120" as="geometry" />
        </mxCell>
        <mxCell id="24" style="edgeStyle=none;html=1;fontSize=16;" parent="1" source="19" target="21" edge="1">
          <mxGeometry relative="1" as="geometry" />
        </mxCell>
        <mxCell id="25" style="edgeStyle=none;html=1;fontSize=16;" parent="1" source="19" target="20" edge="1">
          <mxGeometry relative="1" as="geometry" />
        </mxCell>
        <mxCell id="19" value="满意度反馈&lt;br style=&quot;font-size: 16px;&quot;&gt;" style="rounded=0;html=1;whiteSpace=wrap;horizontal=1;align=center;textDirection=vertical-lr;fontSize=16;" parent="1" vertex="1">
          <mxGeometry x="598" y="640" width="40" height="120" as="geometry" />
        </mxCell>
        <mxCell id="20" value="查看反馈历史" style="rounded=0;html=1;whiteSpace=wrap;horizontal=1;align=center;textDirection=vertical-lr;fontSize=16;" parent="1" vertex="1">
          <mxGeometry x="638" y="800" width="40" height="120" as="geometry" />
        </mxCell>
        <mxCell id="21" value="提交反馈" style="rounded=0;html=1;whiteSpace=wrap;horizontal=1;align=center;textDirection=vertical-lr;fontSize=16;" parent="1" vertex="1">
          <mxGeometry x="558" y="800" width="40" height="120" as="geometry" />
        </mxCell>
        <mxCell id="31" value="用户登录&lt;br style=&quot;font-size: 16px;&quot;&gt;" style="rounded=0;html=1;whiteSpace=wrap;horizontal=1;align=center;textDirection=vertical-lr;fontSize=16;" parent="1" vertex="1">
          <mxGeometry x="1440" y="640" width="40" height="120" as="geometry" />
        </mxCell>
        <mxCell id="34" style="edgeStyle=none;html=1;fontSize=16;" parent="1" source="36" target="38" edge="1">
          <mxGeometry relative="1" as="geometry" />
        </mxCell>
        <mxCell id="35" style="edgeStyle=none;html=1;fontSize=16;" parent="1" source="36" target="37" edge="1">
          <mxGeometry relative="1" as="geometry" />
        </mxCell>
        <mxCell id="36" value="互动交流&lt;br style=&quot;font-size: 16px;&quot;&gt;" style="rounded=0;html=1;whiteSpace=wrap;horizontal=1;align=center;textDirection=vertical-lr;fontSize=16;" parent="1" vertex="1">
          <mxGeometry x="1320" y="640" width="40" height="120" as="geometry" />
        </mxCell>
        <mxCell id="37" value="结束对话" style="rounded=0;html=1;whiteSpace=wrap;horizontal=1;align=center;textDirection=vertical-lr;fontSize=16;" parent="1" vertex="1">
          <mxGeometry x="1280" y="800" width="40" height="120" as="geometry" />
        </mxCell>
        <mxCell id="38" value="对接客户" style="rounded=0;html=1;whiteSpace=wrap;horizontal=1;align=center;textDirection=vertical-lr;fontSize=16;" parent="1" vertex="1">
          <mxGeometry x="1360" y="800" width="40" height="120" as="geometry" />
        </mxCell>
        <mxCell id="39" style="edgeStyle=none;html=1;fontSize=16;" parent="1" source="41" target="42" edge="1">
          <mxGeometry relative="1" as="geometry" />
        </mxCell>
        <mxCell id="40" style="edgeStyle=none;html=1;fontSize=16;" parent="1" source="41" target="43" edge="1">
          <mxGeometry relative="1" as="geometry" />
        </mxCell>
        <mxCell id="42" value="获取建议" style="rounded=0;html=1;whiteSpace=wrap;horizontal=1;align=center;textDirection=vertical-lr;fontSize=16;" parent="1" vertex="1">
          <mxGeometry x="1201" y="800" width="40" height="120" as="geometry" />
        </mxCell>
        <mxCell id="43" value="生成图谱" style="rounded=0;html=1;whiteSpace=wrap;horizontal=1;align=center;textDirection=vertical-lr;fontSize=16;" parent="1" vertex="1">
          <mxGeometry x="1120" y="800" width="40" height="120" as="geometry" />
        </mxCell>
        <mxCell id="46" value="查看对话历史&lt;br style=&quot;font-size: 16px;&quot;&gt;" style="rounded=0;html=1;whiteSpace=wrap;horizontal=1;align=center;textDirection=vertical-lr;fontSize=16;" parent="1" vertex="1">
          <mxGeometry x="1040" y="640" width="40" height="120" as="geometry" />
        </mxCell>
        <mxCell id="58" style="edgeStyle=none;html=1;fontSize=16;" parent="1" source="60" target="61" edge="1">
          <mxGeometry relative="1" as="geometry" />
        </mxCell>
        <mxCell id="59" style="edgeStyle=none;html=1;fontSize=16;" parent="1" source="60" target="62" edge="1">
          <mxGeometry relative="1" as="geometry" />
        </mxCell>
        <mxCell id="60" value="数据分析&lt;br style=&quot;font-size: 16px;&quot;&gt;" style="rounded=0;html=1;whiteSpace=wrap;horizontal=1;align=center;textDirection=vertical-lr;fontSize=16;" parent="1" vertex="1">
          <mxGeometry x="2202" y="640" width="40" height="120" as="geometry" />
        </mxCell>
        <mxCell id="61" value="分析查询记录" style="rounded=0;html=1;whiteSpace=wrap;horizontal=1;align=center;textDirection=vertical-lr;fontSize=16;" parent="1" vertex="1">
          <mxGeometry x="2162" y="800" width="40" height="120" as="geometry" />
        </mxCell>
        <mxCell id="62" value="导出分析报告" style="rounded=0;html=1;whiteSpace=wrap;horizontal=1;align=center;textDirection=vertical-lr;fontSize=16;" parent="1" vertex="1">
          <mxGeometry x="2242" y="799" width="40" height="120" as="geometry" />
        </mxCell>
        <mxCell id="63" style="edgeStyle=none;html=1;fontSize=16;" parent="1" source="65" target="66" edge="1">
          <mxGeometry relative="1" as="geometry" />
        </mxCell>
        <mxCell id="64" style="edgeStyle=none;html=1;fontSize=16;" parent="1" source="65" target="67" edge="1">
          <mxGeometry relative="1" as="geometry" />
        </mxCell>
        <mxCell id="81" style="edgeStyle=none;html=1;fontSize=16;" parent="1" source="65" target="80" edge="1">
          <mxGeometry relative="1" as="geometry" />
        </mxCell>
        <mxCell id="65" value="用户管理&lt;br style=&quot;font-size: 16px;&quot;&gt;" style="rounded=0;html=1;whiteSpace=wrap;horizontal=1;align=center;textDirection=vertical-lr;fontSize=16;" parent="1" vertex="1">
          <mxGeometry x="2000" y="640" width="40" height="120" as="geometry" />
        </mxCell>
        <mxCell id="66" value="添加用户" style="rounded=0;html=1;whiteSpace=wrap;horizontal=1;align=center;textDirection=vertical-lr;fontSize=16;" parent="1" vertex="1">
          <mxGeometry x="2080" y="800" width="40" height="120" as="geometry" />
        </mxCell>
        <mxCell id="67" value="删除用户" style="rounded=0;html=1;whiteSpace=wrap;horizontal=1;align=center;textDirection=vertical-lr;fontSize=16;" parent="1" vertex="1">
          <mxGeometry x="2000" y="800" width="40" height="120" as="geometry" />
        </mxCell>
        <mxCell id="68" style="edgeStyle=none;html=1;fontSize=16;" parent="1" source="70" target="72" edge="1">
          <mxGeometry relative="1" as="geometry" />
        </mxCell>
        <mxCell id="69" style="edgeStyle=none;html=1;fontSize=16;" parent="1" source="70" target="71" edge="1">
          <mxGeometry relative="1" as="geometry" />
        </mxCell>
        <mxCell id="70" value="管理员登录&lt;br style=&quot;font-size: 16px;&quot;&gt;" style="rounded=0;html=1;whiteSpace=wrap;horizontal=1;align=center;textDirection=vertical-lr;fontSize=16;" parent="1" vertex="1">
          <mxGeometry x="1560" y="640" width="40" height="120" as="geometry" />
        </mxCell>
        <mxCell id="71" value="注销登录" style="rounded=0;html=1;whiteSpace=wrap;horizontal=1;align=center;textDirection=vertical-lr;fontSize=16;" parent="1" vertex="1">
          <mxGeometry x="1600" y="800" width="40" height="120" as="geometry" />
        </mxCell>
        <mxCell id="72" value="登录后台" style="rounded=0;html=1;whiteSpace=wrap;horizontal=1;align=center;textDirection=vertical-lr;fontSize=16;" parent="1" vertex="1">
          <mxGeometry x="1520" y="800" width="40" height="120" as="geometry" />
        </mxCell>
        <mxCell id="73" style="edgeStyle=none;html=1;fontSize=16;" parent="1" source="75" target="77" edge="1">
          <mxGeometry relative="1" as="geometry" />
        </mxCell>
        <mxCell id="74" style="edgeStyle=none;html=1;fontSize=16;" parent="1" source="75" target="76" edge="1">
          <mxGeometry relative="1" as="geometry" />
        </mxCell>
        <mxCell id="79" style="edgeStyle=none;html=1;fontSize=16;" parent="1" source="75" target="78" edge="1">
          <mxGeometry relative="1" as="geometry" />
        </mxCell>
        <mxCell id="75" value="编辑知识库&lt;br style=&quot;font-size: 16px;&quot;&gt;" style="rounded=0;html=1;whiteSpace=wrap;horizontal=1;align=center;textDirection=vertical-lr;fontSize=16;" parent="1" vertex="1">
          <mxGeometry x="1763" y="640" width="40" height="120" as="geometry" />
        </mxCell>
        <mxCell id="76" value="更新知识库" style="rounded=0;html=1;whiteSpace=wrap;horizontal=1;align=center;textDirection=vertical-lr;fontSize=16;" parent="1" vertex="1">
          <mxGeometry x="1763" y="800" width="40" height="120" as="geometry" />
        </mxCell>
        <mxCell id="77" value="添加知识库" style="rounded=0;html=1;whiteSpace=wrap;horizontal=1;align=center;textDirection=vertical-lr;fontSize=16;" parent="1" vertex="1">
          <mxGeometry x="1683" y="800" width="40" height="120" as="geometry" />
        </mxCell>
        <mxCell id="78" value="删除知识库" style="rounded=0;html=1;whiteSpace=wrap;horizontal=1;align=center;textDirection=vertical-lr;fontSize=16;" parent="1" vertex="1">
          <mxGeometry x="1843" y="800" width="40" height="120" as="geometry" />
        </mxCell>
        <mxCell id="80" value="设置权限" style="rounded=0;html=1;whiteSpace=wrap;horizontal=1;align=center;textDirection=vertical-lr;fontSize=16;" parent="1" vertex="1">
          <mxGeometry x="1920" y="800" width="40" height="120" as="geometry" />
        </mxCell>
        <mxCell id="_XLRPtfN0X6dvK7SUnGm-85" style="rounded=0;orthogonalLoop=1;jettySize=auto;html=1;exitX=0.5;exitY=1;exitDx=0;exitDy=0;entryX=0.5;entryY=0;entryDx=0;entryDy=0;fontSize=16;" edge="1" parent="1" source="_XLRPtfN0X6dvK7SUnGm-84" target="16">
          <mxGeometry relative="1" as="geometry" />
        </mxCell>
        <mxCell id="_XLRPtfN0X6dvK7SUnGm-86" style="rounded=0;orthogonalLoop=1;jettySize=auto;html=1;exitX=0.5;exitY=1;exitDx=0;exitDy=0;entryX=0.5;entryY=0;entryDx=0;entryDy=0;fontSize=16;" edge="1" parent="1" source="_XLRPtfN0X6dvK7SUnGm-84" target="19">
          <mxGeometry relative="1" as="geometry" />
        </mxCell>
        <mxCell id="_XLRPtfN0X6dvK7SUnGm-87" style="rounded=0;orthogonalLoop=1;jettySize=auto;html=1;exitX=0.5;exitY=1;exitDx=0;exitDy=0;entryX=0.5;entryY=0;entryDx=0;entryDy=0;fontSize=16;" edge="1" parent="1" source="_XLRPtfN0X6dvK7SUnGm-84" target="10">
          <mxGeometry relative="1" as="geometry" />
        </mxCell>
        <mxCell id="_XLRPtfN0X6dvK7SUnGm-88" style="rounded=0;orthogonalLoop=1;jettySize=auto;html=1;exitX=0.5;exitY=1;exitDx=0;exitDy=0;entryX=0.5;entryY=0;entryDx=0;entryDy=0;fontSize=16;" edge="1" parent="1" source="_XLRPtfN0X6dvK7SUnGm-84" target="4">
          <mxGeometry relative="1" as="geometry" />
        </mxCell>
        <mxCell id="_XLRPtfN0X6dvK7SUnGm-84" value="客户" style="rounded=0;whiteSpace=wrap;html=1;textDirection=vertical-lr;fontSize=16;" vertex="1" parent="1">
          <mxGeometry x="680" y="440" width="42" height="160" as="geometry" />
        </mxCell>
        <mxCell id="_XLRPtfN0X6dvK7SUnGm-92" style="rounded=0;orthogonalLoop=1;jettySize=auto;html=1;exitX=0.5;exitY=1;exitDx=0;exitDy=0;entryX=0.5;entryY=0;entryDx=0;entryDy=0;fontSize=16;" edge="1" parent="1" source="_XLRPtfN0X6dvK7SUnGm-91" target="70">
          <mxGeometry relative="1" as="geometry" />
        </mxCell>
        <mxCell id="_XLRPtfN0X6dvK7SUnGm-93" style="rounded=0;orthogonalLoop=1;jettySize=auto;html=1;exitX=0.5;exitY=1;exitDx=0;exitDy=0;entryX=0.5;entryY=0;entryDx=0;entryDy=0;fontSize=16;" edge="1" parent="1" source="_XLRPtfN0X6dvK7SUnGm-91" target="75">
          <mxGeometry relative="1" as="geometry" />
        </mxCell>
        <mxCell id="_XLRPtfN0X6dvK7SUnGm-94" style="rounded=0;orthogonalLoop=1;jettySize=auto;html=1;exitX=0.5;exitY=1;exitDx=0;exitDy=0;entryX=0.5;entryY=0;entryDx=0;entryDy=0;fontSize=16;" edge="1" parent="1" source="_XLRPtfN0X6dvK7SUnGm-91" target="65">
          <mxGeometry relative="1" as="geometry" />
        </mxCell>
        <mxCell id="_XLRPtfN0X6dvK7SUnGm-95" style="rounded=0;orthogonalLoop=1;jettySize=auto;html=1;exitX=0.5;exitY=1;exitDx=0;exitDy=0;entryX=0.5;entryY=0;entryDx=0;entryDy=0;fontSize=16;" edge="1" parent="1" source="_XLRPtfN0X6dvK7SUnGm-91" target="60">
          <mxGeometry relative="1" as="geometry" />
        </mxCell>
        <mxCell id="_XLRPtfN0X6dvK7SUnGm-91" value="管理员" style="rounded=0;whiteSpace=wrap;html=1;textDirection=vertical-lr;fontSize=16;" vertex="1" parent="1">
          <mxGeometry x="1883" y="440" width="42" height="160" as="geometry" />
        </mxCell>
        <mxCell id="41" value="AI辅助" style="rounded=0;html=1;whiteSpace=wrap;horizontal=1;align=center;textDirection=vertical-lr;fontSize=16;" parent="1" vertex="1">
          <mxGeometry x="1160.5" y="640" width="40" height="120" as="geometry" />
        </mxCell>
        <mxCell id="_XLRPtfN0X6dvK7SUnGm-99" style="rounded=0;orthogonalLoop=1;jettySize=auto;html=1;exitX=0.5;exitY=1;exitDx=0;exitDy=0;entryX=0.5;entryY=0;entryDx=0;entryDy=0;fontSize=16;" edge="1" parent="1" source="_XLRPtfN0X6dvK7SUnGm-98" target="46">
          <mxGeometry relative="1" as="geometry" />
        </mxCell>
        <mxCell id="_XLRPtfN0X6dvK7SUnGm-100" style="rounded=0;orthogonalLoop=1;jettySize=auto;html=1;exitX=0.5;exitY=1;exitDx=0;exitDy=0;entryX=0.5;entryY=0;entryDx=0;entryDy=0;fontSize=16;" edge="1" parent="1" source="_XLRPtfN0X6dvK7SUnGm-98" target="41">
          <mxGeometry relative="1" as="geometry" />
        </mxCell>
        <mxCell id="_XLRPtfN0X6dvK7SUnGm-101" style="rounded=0;orthogonalLoop=1;jettySize=auto;html=1;exitX=0.5;exitY=1;exitDx=0;exitDy=0;entryX=0.5;entryY=0;entryDx=0;entryDy=0;fontSize=16;" edge="1" parent="1" source="_XLRPtfN0X6dvK7SUnGm-98" target="36">
          <mxGeometry relative="1" as="geometry" />
        </mxCell>
        <mxCell id="_XLRPtfN0X6dvK7SUnGm-102" style="rounded=0;orthogonalLoop=1;jettySize=auto;html=1;exitX=0.5;exitY=1;exitDx=0;exitDy=0;entryX=0.5;entryY=0;entryDx=0;entryDy=0;fontSize=16;" edge="1" parent="1" source="_XLRPtfN0X6dvK7SUnGm-98" target="31">
          <mxGeometry relative="1" as="geometry" />
        </mxCell>
        <mxCell id="_XLRPtfN0X6dvK7SUnGm-98" value="人工客服" style="rounded=0;whiteSpace=wrap;html=1;textDirection=vertical-lr;fontSize=16;" vertex="1" parent="1">
          <mxGeometry x="1241" y="440" width="42" height="160" as="geometry" />
        </mxCell>
        <mxCell id="_XLRPtfN0X6dvK7SUnGm-106" style="rounded=0;orthogonalLoop=1;jettySize=auto;html=1;exitX=0.5;exitY=1;exitDx=0;exitDy=0;entryX=0.5;entryY=0;entryDx=0;entryDy=0;" edge="1" parent="1" source="_XLRPtfN0X6dvK7SUnGm-104" target="_XLRPtfN0X6dvK7SUnGm-84">
          <mxGeometry relative="1" as="geometry" />
        </mxCell>
        <mxCell id="_XLRPtfN0X6dvK7SUnGm-107" style="rounded=0;orthogonalLoop=1;jettySize=auto;html=1;exitX=0.5;exitY=1;exitDx=0;exitDy=0;entryX=0.5;entryY=0;entryDx=0;entryDy=0;" edge="1" parent="1" source="_XLRPtfN0X6dvK7SUnGm-104" target="_XLRPtfN0X6dvK7SUnGm-98">
          <mxGeometry relative="1" as="geometry" />
        </mxCell>
        <mxCell id="_XLRPtfN0X6dvK7SUnGm-108" style="rounded=0;orthogonalLoop=1;jettySize=auto;html=1;exitX=0.5;exitY=1;exitDx=0;exitDy=0;entryX=0.5;entryY=0;entryDx=0;entryDy=0;" edge="1" parent="1" source="_XLRPtfN0X6dvK7SUnGm-104" target="_XLRPtfN0X6dvK7SUnGm-91">
          <mxGeometry relative="1" as="geometry" />
        </mxCell>
        <mxCell id="_XLRPtfN0X6dvK7SUnGm-104" value="客服问答辅助系统" style="rounded=0;whiteSpace=wrap;html=1;textDirection=vertical-lr;fontSize=16;" vertex="1" parent="1">
          <mxGeometry x="1241" y="160" width="42" height="160" as="geometry" />
        </mxCell>
      </root>
    </mxGraphModel>
  </diagram>
</mxfile>
